# xmcd
#
# Track frame offsets:
#	150
#	15536
#	34226
#	47471
#	63182
#	80273
#	102443
#	116045
#	128530
#	144205
#	163399
#
# Disc length: 2351 seconds
#
# Revision: 2
# Processed by: cddbd v1.5.2PL0 Copyright (c) Steve Scherf et al.
# Submitted via: audiograbber 1.83.01
#
DISCID=87092d0b
DTITLE=Sophie Hunger - The Danger of Light Deluxe Edition CD1
DYEAR=2012
DGENRE=Blues
TTITLE0=Rererevolution
TTITLE1=Souldier
TTITLE2=LikeLikeLike
TTITLE3=Das Neue
TTITLE4=Can you See Me?
TTITLE5=Heharun
TTITLE6=Z'Lied vor Frieheitsstatue
TTITLE7=Holy Hells
TTITLE8=The Fallen
TTITLE9=Perpetrator
TTITLE10=Take a Turn
EXTD=
EXTT0=
EXTT1=
EXTT2=
EXTT3=
EXTT4=
EXTT5=
EXTT6=
EXTT7=
EXTT8=
EXTT9=
EXTT10=
PLAYORDER=
